<?xml version="1.0" encoding="UTF-8"?><svg id="Layer_2" xmlns="http://www.w3.org/2000/svg" viewBox="0 0 137.44 60.43"><g id="Layer_1-2"><path d="m58.51,41.46c1.23-.88,1.01-1.14-.54-.65-2.77.88-4.41.27-5.15-1.93-.21-.61-.31-1.26-.31-1.9l.04-8.8c.04-8.95.06-9.79.27-10,.13-.13,1.08-.68,2.13-1.24,6.96-3.69,11.49-8.68,11.49-12.77,0-2.91-2.43-4.86-4.91-3.95-2.93,1.08-2.88,4.99.09,6.62,2.41,1.33-3.24,7.75-8.41,9.61-.58.21-.66.07-.77-.53-.1-.54-.66-2.32-1.18-3.2-2.16-3.7-6.77-5.38-12.53-4.56-5.92.84-10.31,4.91-10.55,9.77-.13,2.5.45,3.35,1.05,1.54,1.6-4.89,3.09-6.82,6.9-8.95,6.56-3.67,10.52-1.33,10.54,6.22,0,3.3.98,2.66-8.81,5.8-12.5,4.01-16.65,8.61-13.95,15.46,2.97,7.51,17.32,7.78,21.95.41.5-.79.68-.81.8-.09.85,5.32,6.67,6.86,11.86,3.14Zm-29.07-8.77c.8-5.2,3.22-7.09,13.45-10.5,1.68-.56,3.11-1.07,3.18-1.14.08-.08.15-.12.21-.11.26.06.28,1.42.25,7.24l-.04,6.94-.49.95c-2.02,3.88-5.54,5.65-8.83,5.65-4.52,0-8.61-3.31-7.72-9.03Z" style="fill:#c7a890;"/><path d="m94.68,23.71c-4.03-1.07-8.76-2.97-10.19-4.07-4.17-3.24-2.43-9.16,3-10.18,6.95-1.31,13.17,1.21,14.67,7.72.18.77.29,1.99.34,2.56,0,.07.04.14.1.19.37.29.77.03.77-.32v-9.33c0-.51-.29-.44-.54-.44,0,0-.32-.02-.4.3-.5,1.96-1.99,1.23-4.38-.05-4-2.15-8.46-2.62-12.46-1.77-5.04,1.06-8.37,5.11-10.39,12.62-.68,2.52-1.96,8.79-2.26,10.99-.84,6.31-3.44,10.05-5.54,7.95-.81-.8-.8-.6-.68-15.22.04-5.38-.05-12.87-.08-14.87,0-.16-.2-.22-.29-.09-2.29,3.08-3.92,4.46-6.78,6.55-.1.07-.11.22,0,.28.98.56,1.18,2.25,1.25,12.49.06,8.79.11,10.81.26,11.2,1.57,3.89,5.52,4.56,8.87,1.49.5-.46.92-.78.92-.71,0,2.53-3.31,9.3-5.92,12.09-3.77,4.03-7.17,5.16-11.19,3.69-2.75-1-3.86-.9-4.51.4-1.45,2.89,2.93,4.2,8.25,2.48,2.1-.68,3.52-1.32,4.64-2.11l1.65-1.15c3.09-2.17,6.38-7.46,7.93-12.73.69-2.35,2.1-8.2,2.48-10.25,1.12-6.12,1.4-7.54,2.12-10.86.64-2.98,1.64-5.95,2.48-7.36.66-1.12.71-1.14.35-.14-2.09,5.9.91,10.45,8.44,12.79,10.45,3.25,12.79,4.94,12.45,9.03-.68,8.15-14.54,7.57-19.03-.8-1.34-2.49-1.71-2.27-2.67,1.55-.47,1.91-.3,2.47.6,1.91.86-.53,1.21-.42,2.76.89,6.55,5.53,18.5,4.33,21.81-2.19,3.16-6.23-.53-12.32-8.8-14.52Z" style="fill:#c7a890;"/><path d="m136.35,34.01c-2.99,5.39-11.36,8.21-17.37,5.24-3.08-1.52-5.63-4.61-6.84-8.27-.46-1.41-.43-1.51.63-1.97.5-.22,21.57-9.79,21.85-9.9.59-.24.65-.41.25-1.54-2.48-6.99-8.43-10.63-15.48-9.47-11.54,1.9-18.23,16.32-12.42,26.75,5.27,9.46,16.83,11.24,24.89,5.96,3.88-2.25,6.11-6.94,5.46-7.25l-.32-.11c-.32-.1-.66.57-.66.57Zm-25.37-7.89c-1.08-8.63,2.25-15.48,8.13-16.74,1.82-.39,4.17.22,5.74,1.49,1.9,1.54,4.11,5.68,4.36,8.17l.04.46c.02.18-.08.35-.25.41,0,0-2.57,1.13-6.13,2.85-1.76.84-4.08,1.95-5.16,2.47-1.08.52-2.85,1.39-3.94,1.95-1.08.55-2.04,1.03-2.13,1.05-.28.08-.45-.47-.66-2.11Z" style="fill:#c7a890;"/><path d="m26.96,12.31c-.33-1.39-1.29-2.83-2.35-3.55-1.4-.94-4.48-1.17-6.58-.48-1.85.6-5.65,2.99-7.35,4.62l-1.1,1.04c-.06.05-.15.02-.16-.06,0-.34,0-.67,0-1,0-1.36-.01-2.6-.02-3.62,0-.96-.01-1.72-.02-2.18,0-.16-.21-.22-.3-.09-.66.88-1.26,1.63-1.86,2.29-1.4,1.55-2.74,2.65-4.54,3.99-.06.04-.21.15-.35.25-.72.52-1.32.82-2.22,1.33-.21.15-.07.42.05.61.14.21.55.04.67.01.75-.16,1.83-.2,2.11.86.18.64.16.89.2,1.57.06.94.1,2.12.13,3.59h0s.05,6.53.05,6.53l-.08,11.77c0,3.22-1.67,3.01-2.35,3.14-.16.03-.29.14-.29.3v.21c.02.26.15.33.33.33,0,0,1.15,0,2.6,0,.65,0,2.38,0,4.08,0h1.49c1.45,0,2.6,0,2.6,0,0,0,0,0,0,0,.18,0,.31-.07.33-.33v-.21c0-.16-.13-.27-.29-.3-.68-.12-2.35.09-2.35-3.14v-.33s0-2.6,0-2.6v-8.84s0-6.56,0-6.56c0-1.91.01-4.01,0-6.01,0-.02.01-.03.03-.04l1.76-1.44c2.55-2.09,3.89-2.7,6.35-2.85,3.09-.2,4.59.75,5.65,3.58.61,1.62,1.37,1.98,2.56,1.22.81-.52,1.46-2.49,1.19-3.61Z" style="fill:#c7a890;"/></g></svg>