<?xml version="1.0" encoding="UTF-8"?><svg id="Layer_2" xmlns="http://www.w3.org/2000/svg" viewBox="0 0 795.56 795.56"><defs><style>.cls-1{fill: #c7a890;}.cls-2{fill: #c7a890;}.cls-3{fill:none;stroke: #c7a890;stroke-miterlimit:133.33;stroke-width:79.56px;}</style></defs><g id="Layer_1-2"><path class="cls-3" d="m39.78,397.78C39.78,102.96,102.96,39.78,397.78,39.78s358,63.19,358,358-63.19,358-358,358S39.78,692.59,39.78,397.78Z"/><path class="cls-2" d="m262.19,212.38c-26.82,0-44.39,17.64-44.39,40.76s17.05,40.8,43.36,40.8h.51c27.37,0,44.39-18.15,44.39-40.8-.51-23.13-17.02-40.76-43.87-40.76h0Z"/><path class="cls-1" d="m583.72,426.77v135.28h-78.42v-126.24c0-31.69-11.34-53.31-39.74-53.31-21.66,0-34.58,14.56-40.25,28.69-2.05,5.05-2.6,12.08-2.6,19.1v131.77h-78.45s1.06-213.77,0-235.91h78.45v33.41l-.51.77h.51v-.73c10.43-16.1,29.02-39.01,70.7-39.01,51.59,0,90.31,33.74,90.31,106.19h0Z"/><rect class="cls-1" x="222.45" y="326.14" width="78.45" height="235.91"/></g></svg>